<svg xmlns="http://www.w3.org/2000/svg" viewBox="0 0 560 790.9"><path fill="#3E3B70" d="M7.8 687.3l26.1-25.5-25.6-46.9L97 644.2v77.6"/><path d="M12.5 618.4L95 645.6v73.3l-83.6-32.3 22.8-22.3 2.2-2.1-1.4-2.7-22.5-41.1m-8.3-7l27.2 50-27.2 26.7L99 724.8v-82L4.2 611.4z"/><path fill="#3E3B70" d="M463 644.2l89.8-29.3-25.1 46.9 25.3 25.5-90 34.5"/><path d="M548.7 618.3l-22 41.2-1.4 2.6 2.1 2.1 22.1 22.3-84.5 32.4v-73.3l83.7-27.3m8.2-6.9L461 642.8v82l95.6-36.7-26.4-26.7 26.7-50z"/><path fill="#FFF" d="M463 645.8l33 16.9v46l-33 13.1"/><path d="M465 649.1l29 14.8v43.5l-29 11.5v-69.8m-4-6.5v82.2l37-14.7v-48.7l-37-18.8z"/><g><path fill="#FFF" d="M64 708.7v-46l33-16.9v76"/><path d="M95 649.1v69.8l-29-11.5v-43.5l29-14.8m4-6.5l-37 18.9v48.7l37 14.7v-82.3z"/></g><g><path fill="#3E3B70" d="M280 788.1c-74.7 0-147.4-15.6-216-46.4v-77c66.1 33.6 140.7 51.4 216 51.4 75.3 0 149.9-17.8 216-51.4v77c-66.7 30.4-141.3 46.4-216 46.4z"/><path d="M494 668.1v72.3c-32.3 14.6-66.4 25.9-101.5 33.5-36.7 8-74.6 12.1-112.6 12.1-74 0-146-15.4-214-45.6V668c31.4 15.7 64.6 27.9 98.9 36.3 37.4 9.2 76.1 13.8 115.1 13.8 38.9 0 77.7-4.7 115.1-13.8 34.4-8.4 67.6-20.6 99-36.2m4-6.7c-65 33.7-139.3 52.7-218 52.7-78.7 0-153-19-218-52.7V743c67 30.2 140.2 47.1 218 47.1 77.8 0 152-16.8 218-47.1v-81.6z"/></g><g><g fill="#FFF"><path d="M100.5 742.3v-40.8l5.1 1.8V740c5.8 2 11.7 4 17.6 5.8v4.1c-7.6-2.4-15.1-4.9-22.7-7.6zM136.8 714.2c2.5-.3 5.2-.1 8 .6 7.6 2 13.3 6.2 16.9 12.7 2.1 3.9 3.2 8.2 3.2 12.9 0 4.7-1.1 8.6-3.3 11.6-2.3 3.2-5.5 5-9.4 5.4-2.1.2-4.6 0-7.4-.8-2.8-.7-5.5-2-8-3.8-2.5-1.8-4.6-3.9-6.2-6.3-3.3-4.9-4.9-10.4-4.9-16.5 0-6 1.7-10.4 5.1-13.3 1.4-1.4 3.5-2.2 6-2.5zm16.1 9c-2.2-2.1-4.7-3.5-7.7-4.3-3-.8-5.5-.8-7.7.1-4.3 1.7-6.4 5.9-6.4 12.6 0 6.8 2.1 12.4 6.4 16.5 2.2 2.1 4.5 3.5 7.1 4.2 4.8 1.3 8.5.5 11-2.3 2.4-2.7 3.6-6.4 3.6-11 .1-6.5-2-11.8-6.3-15.8zM176.7 763.5c-1.8-.4-3.5-.7-5.3-1.1v-40.8c1.8.4 3.5.7 5.3 1.1v20.4c5-5.8 10-11.7 15-17.7 1.8.3 3.7.6 5.5.9-4.9 5.9-9.9 11.8-14.8 17.6 5.4 7.9 10.7 15.6 16.1 23.3-2.1-.3-4.1-.7-6.2-1-5.2-7.5-10.4-15.1-15.6-22.8v20.1zM211.7 729.5c2.6-.7 5.3-.9 8.1-.6 7.8.9 13.5 4.2 17.2 10.2 2.2 3.6 3.2 7.8 3.2 12.4 0 4.7-1.1 8.8-3.4 12.1-2.4 3.5-5.6 5.8-9.6 6.8-2.2.5-4.7.6-7.5.3-2.9-.3-5.6-1.2-8.2-2.6-2.6-1.4-4.7-3.2-6.3-5.3-3.4-4.4-5-9.7-5-15.8 0-6 1.7-10.7 5.2-14 1.6-1.6 3.7-2.7 6.3-3.5zm16.5 6.7c-2.2-1.7-4.8-2.8-7.9-3.1-3-.4-5.7.1-7.9 1.2-4.4 2.3-6.6 6.8-6.6 13.5 0 6.8 2.2 12 6.5 15.6 2.2 1.8 4.6 2.9 7.3 3.2 4.9.6 8.7-.8 11.3-3.9 2.5-3 3.7-6.9 3.7-11.6 0-6.5-2.1-11.5-6.4-14.9zM268.1 766.4c4.3-11.1 8.5-22.2 12.8-33.3h5c1.7 13.6 3.4 27.2 5.1 40.7-1.8 0-3.5.1-5.3.1-1.2-10.1-2.5-20.3-3.7-30.4-3.8 10.1-7.6 20.3-11.3 30.3-1.6 0-3.3-.1-4.9-.1-4.1-10.7-8.3-21.5-12.4-32.4-1.3 10.5-2.6 21.1-3.9 31.6l-4.8-.3 5.1-40.5c1.8.1 3.5.2 5.3.3 4.4 11.4 8.7 22.7 13 34zM307.2 733.5c2.6-1.2 5.3-1.8 8.2-2 7.8-.5 13.6 1.8 17.2 7.1 2.2 3.2 3.2 7.2 3.2 11.9s-1.1 9-3.3 12.7c-2.4 4-5.6 6.8-9.6 8.5-2.2.9-4.7 1.5-7.6 1.6-2.9.2-5.6-.2-8.2-1.2-2.6-1-4.7-2.4-6.4-4.2-3.4-3.8-5.1-8.8-5.1-14.9 0-6 1.7-11 5.2-15 1.7-1.8 3.9-3.3 6.4-4.5zm16.6 3.7c-2.2-1.3-4.8-1.9-7.9-1.7-3 .2-5.7 1.1-7.9 2.6-4.4 3.1-6.6 8-6.6 14.7 0 6.8 2.2 11.6 6.6 14.4 2.2 1.4 4.7 2 7.3 1.9 4.9-.3 8.7-2.3 11.3-5.9 2.5-3.5 3.7-7.6 3.7-12.2-.1-6.5-2.2-11.1-6.5-13.8zM338.9 730c10.6-1.1 21.1-2.6 31.6-4.4v4.1c-4.4.7-8.7 1.4-13.1 2v36.7c-1.8.3-3.6.5-5.3.7v-36.7c-4.4.6-8.8 1.1-13.1 1.6-.1-1.2-.1-2.6-.1-4zM382.7 723.5v40.8c-1.8.3-3.5.7-5.3 1v-40.8c1.8-.4 3.5-.7 5.3-1zM407.5 751.6l12.3-36.6c1.6-.4 3.2-.9 4.9-1.3-5 15-10.1 29.9-15.1 44.7-1.5.4-2.9.7-4.4 1.1-5.1-12.4-10.2-24.8-15.2-37.4 1.7-.4 3.5-.7 5.2-1.1l12.3 30.6zM453.4 733.7c-5.2 1.8-10.4 3.5-15.7 5.1-1.4 4.4-2.9 8.8-4.3 13.1-1.6.5-3.2.9-4.8 1.4 5-15 10-30.1 15-45.3 1.4-.5 2.9-.9 4.3-1.4 5 12 9.9 23.8 14.9 35.6l-5.1 1.8c-1.4-3.4-2.8-6.9-4.3-10.3zm-1.5-3.6c-2.1-5.1-4.2-10.3-6.4-15.5-2.1 6.5-4.3 13.1-6.4 19.6 4.4-1.3 8.6-2.7 12.8-4.1z"/></g></g><g><path d="M92.3 92L79 102.3l411.5 532.6 3.3-1.5"/><path fill="#291672" d="M14 15c-1.1-1.4-1.7-3-1.7-4.8 0-4.2 3.4-7.5 7.5-7.5 2.3 0 4.4 1 5.9 2.8.1.2.3.4.4.5l41.5 56-11 8.1L14 15z"/><path d="M19.9 4.7c1.7 0 3.2.7 4.3 2v.1c.1.1.2.3.3.4l.1.1.1.1L65 61.7l-8 5.7-41.3-53.5-.1-.1-.1-.1c-.8-1-1.2-2.2-1.2-3.5 0-3 2.5-5.5 5.6-5.5m0-4c-5.3 0-9.5 4.3-9.5 9.5 0 2.3.8 4.4 2.1 6L56.3 73l14.2-10.5L27.8 5c-.2-.2-.3-.4-.5-.7C25.5 2.1 22.9.7 19.9.7z"/><path fill="#FFF" d="M120.3 144.9l-31.4-41.8-2.9 2.3 31.5 41.7"/><g><path fill="#291672" d="M55.5 111.3c-6.5 0-11.9-1.3-16-2.4-10.8-3-20.9-8.7-29.5-16.7 18.3-6.9 35.3-16.5 50.8-28.6 15.3-11.9 28.7-26 39.9-41.9 2.8 6.3 5 12.8 6.6 19.4v.2c1.5 6.3 2.3 12.1 2.3 15.8 0 29.9-24.3 54.2-54.1 54.2z"/><path d="M100.2 25.8c2.1 5.1 3.8 10.4 5.1 15.8v.2c1.5 6.2 2.3 11.8 2.3 15.3 0 28.8-23.4 52.1-52.1 52.1-6.2 0-11.5-1.2-15.4-2.3-9.5-2.6-18.5-7.4-26.3-14.1C31.1 86 47.3 76.7 62 65.2c14.6-11.3 27.4-24.5 38.2-39.4m.8-8c-8.1 12-21.4 28.7-41.4 44.3C39.4 77.7 20 86.5 6.3 91.4c5.6 5.6 16.4 14.9 32.7 19.4 3.8 1.1 9.6 2.5 16.5 2.5 31 0 56.1-25.1 56.1-56.1 0-6.3-2.2-15.6-2.4-16.4-2.3-9.9-5.6-17.7-8.2-23z"/></g></g><g><path fill="#2A3A85" d="M151.1 600.4C80.2 555 37.6 478.6 37.1 396.1l-2-2L37 396l-8.6-216.9c38.4-2 75-17.7 103.3-44.1 28.1-26.3 46.1-61.6 50.9-99.6 32.3 2 65 3 97.4 3 88.4 0 175.2-6.9 257.9-20.6L523 396l2-1.9-2 2c-.5 82.5-43.1 158.9-114 204.3l-129 82.2-128.9-82.2z"/><path d="M535.9 20.2L521 395.9h.1l-.1.1c-.3 40.8-11.1 81.2-31.4 116.8-19.7 34.5-47.9 64.2-81.6 85.9l-128 81.5-127.9-81.5c-33.7-21.6-62-51.3-81.6-85.9-20.3-35.6-31.1-76-31.4-116.8l-.1-.1h.1L30.5 181c38.2-2.5 74.4-18.2 102.5-44.6 28-26.2 46.1-61.2 51.3-99 31.7 1.9 63.9 2.9 95.7 2.9 87.7.1 173.8-6.7 255.9-20.1m4.2-4.8c-84.6 14.1-171.5 21-260 21-33.3 0-66.4-1-99.2-3.1-9 78.7-74.2 140.7-154.5 144L35 396.1h.1c.6 86 46.3 162 114.9 206h-.1L280 685l130.1-82.9h-.1c68.6-44 114.3-120 114.9-206l15.2-380.7z"/><path fill="#3E3B70" d="M152.1 601.1l-1-.7c-36.6-24.5-65-55.1-84.3-90.9l67.6-66.8L158 303.3v-72.6l-8-18.5v-27.1h16v6h11v-6h17v6h11v-6h16v27.1l-8 18.5v73.4h37V165.7l-8-18.5v-27.1h16v6h11v-6h16v6h11v-6h16v27.1l-8 18.5v138.4h41v-73.4l-8-18.5v-27.1h16v6h11v-6h17v6h11v-6h16v27.1l-8 18.5v72.6l24.8 139.4 68.6 66.7c-19.9 35.9-49.1 67.4-84.5 91l-1.4.9L280 682.6l-127.9-81.5z"/><path d="M310 122.1v24.7l-7.7 17.7-.3.8v140.8h45v-75.8l-.3-.8-7.7-17.7v-24.7h12v6h15v-6h13v6h15v-6h12v24.7l-7.7 17.7-.3.8v73.2l.1.3 24.7 138.6.2 1.3.9.9 67.1 65.2c-19.7 35.1-48.4 65.8-83.1 89l-1.4.9L280 680.2l-126.5-80.6-1.3-.9c-35.9-24-63.8-53.9-83-88.9l66-65.3.9-.9.2-1.3 23.5-138.6.1-.3v-73.1l-.3-.8-7.7-17.7v-24.7h12v6h15v-6h13v6h15v-6h12v24.7l-7.7 17.7-.3.8v75.8h41V165.3l-.3-.8-7.7-17.7v-24.7h12v6h15v-6h12v6h15v-6H310m4-4h-20v6h-7v-6h-20v6h-7v-6h-20v29.5l8 18.5v136h-33v-71l8-18.5v-29.5h-20v6h-7v-6h-21v6h-7v-6h-20v29.5l8 18.5v72l-23.5 138.6-68.1 67.4h-.1c20.2 38 49.8 69 85.7 93h-.1L280 685l130.1-82.9h-.1c36-24 65.7-56 85.9-93l-69.3-67.4L402 303.1v-72l8-18.5v-29.5h-20v6h-7v-6h-21v6h-7v-6h-20v29.5l8 18.5v71h-37v-136l8-18.5v-29.5z"/><path fill="#FFF" d="M152 331.5l9.4 12.9 15.9-.7-4.2 15.4 10.5 12-14.7 6.2-2.8 15.8-14.1-7.6-14.1 7.6-2.8-15.8-14.7-6.2 10.5-12-4.2-15.4 15.9.7M418 331.5l9.4 12.9 15.9-.7-4.2 15.4 10.5 12-14.7 6.2-2.8 15.8-14.1-7.6-14.1 7.6-2.8-15.8-14.7-6.2 10.5-12-4.2-15.4 15.9.7M168 200.5l9.4 12.9 15.9-.7-4.2 15.4 10.5 12-14.7 6.2-2.8 15.8-14.1-7.6-14.1 7.6-2.8-15.8-14.7-6.2 10.5-12-4.2-15.4 15.9.7M401 200.5l9.4 12.9 15.9-.7-4.2 15.4 10.5 12-14.7 6.2-2.8 15.8-14.1-7.6-14.1 7.6-2.8-15.8-14.7-6.2 10.5-12-4.2-15.4 15.9.7M280 56.5l9.4 12.9 15.9-.7-4.2 15.4 10.5 12-14.7 6.2-2.8 15.8-14.1-7.6-14.1 7.6-2.8-15.8-14.7-6.2 10.5-12-4.2-15.4 15.9.7"/><path fill="#3E3B70" d="M459.2 125l-25.3.2 12.8-21.8-12.8-21.8 25.3.2 12.5-22 12.4 22 25.3-.2-12.8 21.8 12.8 21.8-25.3-.2-12.4 22"/><path fill="#FFF" d="M471.7 63.9l10.2 17.9 1.2 2h2.3l20.6-.2-10.4 17.8-1.2 2 1.2 2 10.4 17.8-20.6-.2h-2.3l-1.2 2-10.2 18-10.2-17.9-1.2-2H458l-20.6.2 10.4-17.8 1.2-2-1.2-2-10.4-17.8 20.6.2h2.3l1.2-2 10.2-18m0-8.1l-13.6 24-27.6-.2 14 23.8-14 23.8 27.5-.2 13.6 24 13.6-24 27.6.2-14-23.8 14-23.8-27.6.2-13.5-24z"/><g fill="#FFF"><path d="M362 269.1c-3.3-2.7-11-4-11-4s7.2-10.8-1.6-19.6c0 0-9 3.1-11 14.3-1.4 7.6-.9 9.3-.4 9.6-1.6.1-6.3.4-8.6 2s-4.2 4.7-5.2 6.7-1.7 2.6-2.2 6c-.5 3.4 0 11 0 11s-4.9-4.3-6.9-5.3-3.5-2.7-3.5-2.7-2.9 1.3-3.9 5-1 9 0 11.3 5 7.7 6.3 8.3c.3.2.7.4 1.1.7-.6 1-15.1 21.8-13.6 17s-.2-21.5.4-30.1-4.4-26-4.4-26 4-.2 6.5-8.2c2.5-8 2-11 0-16.5s-10.5 5-10.5 5l3.3-15.6c2.9-.1 6.5-.8 10.2-2.6 2.1-1 4.5-2.3 6.6-5 2.3-3.1 2.9-6.3 3-7.9-2.5-.2-6.9-.2-11.9 1.6-3.1 1.2-5.5 2.7-7.1 4 .1-1 .2-2 .4-3v-8.3l1.7-3s6-3.4 3-13.3-9.8-12.5-9.8-12.5c-12.1 15.8 2.5 22.4 2.5 22.4v16.8c-.8 5.9-2.4 10.4-4.1 12.1-.8.9-1.7 1.4-1.7 1.4-1.5.9-3.1 1.2-4 1.2 0 0-3.9-3.4-9.2-2.7-5.3.7-10 5.9-10 6.6s2.2 4.8 2.2 4.8-12.3.7-14.5 8.1c0 0-3.5-2.1-11-.8 0 0 5.5-18.2-6-24.2-9-4.7-7.3 12.4-6.1 20-3.1-2.2-10.8-3.4-12.9-3-3 .5-8.5 1.5-13.5 6.5 0 0 5.5 8.5 11.5 8s11.5-3.5 15.5-8c0 0 4.3 2.5 10.1 1.1-6.8 2.8-11.7 17.4-11.7 17.4 18.7 5.2 23.1-11.6 23.9-15.9-.3 6.6 16.2 9.1 17.2 12.4 1 3.5-5.5 8.5 0 18.5s9 3.5 9 3.5 4-5.5 3.5-14c-.4-7.6 9.5 8.4 11.6 11.9.1.5.3.9.5 1.3 2.9 5.1 2.5 12.9 2.4 16.1s-1.6 13.5-1.6 14.2-2.4 10.5-3.6 17-1.4 10.4-2 11.8c-.6 1.4-7.4 16.1-7.9 16.8-.4.5-11.2 23-14.3 29.5l.1-.2s-1-2.7-3.8-4-5.8 1.2-6.8 2.2-2.8 3.9-2.4 8.2.4 6.9 1.8 9.9 2 13.1 1 16.2-.5.8-.5.8-3.1-1.9-5-3-5-3.1-6.9-4.6-6-4.4-8.9-6.4-3.4-2.8-7.9-4-8.6.5-11.1 2-13.1 11.4-14.9 13.5-2.5 3.2-2.4 4.4.1 1.2 1.1 1.6 1.4.1 2.4-.6 2.6-2.8 2.6-2.8 9.4-9.2 10.8-10.1 4.4-3.5 7.1-3.8 9 2.2 11 4.8-4.5 4.9-7.9 9.6-1.5 7.5-1.5 7.5 1 .8 2 .8 2-2.5 2.2-3.1 1.1-3.4 2.4-5.1 7-6.1 7-6.1 1-1.8 7.8 3.2 6.4 4.4 7.6 6.4 1 14.9 2.2 20.1 4.9 21.5 7 27.5c1.9 5.3 3.4 16.1 3 22.2-.6 5.9-3.6 9.3-3.6 9.3-2.2 3.3-4.9 6.4-6.8 8.6-3.4 3.8-10 9.1-11.2 10s-3.4 2.4-3.6 3.5.2 2.1.8 2.5c.6.5 1.4.4 2.4.1 3.6-1 6.5-4.5 6.5-4.5 4.6-5.6 5.7-4.8 11.6-11.4l2.6-2.7s4.8-7.2 5.3-11.6c.4-3.5.2-13.9 0-17.9v-1.6c-1-4.5-9.8-25.6-9.8-34.4s-.5-18.9.1-28.6.1-8.4.1-8.4.4-4.2-2.2-10-1.9-4.9-1-6.8 2.2-2.1 3-2.1 2.4.4 2.4.4c-.1.5.2.9.7 2.8s2.4 3.8 3.3 3.9 1.6-2 1.6-2 3.4-7.2 5.5-12.9 7.4-15.6 7.4-15.6 9.1-15.8 8.5-13.5-6.9 17.9-9.2 24-9.1 21.5-9.1 21.5-3.8 11.5-5.1 15.4-2.9 18-2.8 21 2 13 3.8 18.5 6.1 14.9 8.2 18.5 6.3 23.2 6.3 23.2 1.2 29.4 1 31.4-2.2 18.8-2.2 18.8-3 30-4.7 39.7c-1.7 9.7-2.7 15-2.7 15s-.7 2.3 0 4c.7 1.7 3.6 2.1 4.1-1.8s3.9-25.4 3.9-25.4 4-28.8 4.1-30.1 1-27.2 1-28.2 1.9.9 1.9.9h.4l8.3 10.5.1-.1c0 .1-.1.1-.1.2-1.3 2.7 4 8 4 8s4.7 13.3 5.7 17c1 3.7 5.3 15 7 17.7 1.7 2.7 9.3 10.7 14 12.7 4.7 2 12.2 4.9 13.3 4 1.2-.9 2-3.3 0-4.3s-3.3 0-10-2.7-9.3-6.7-9.3-6.7-6.3-11-8.3-16.6-5.7-13.1-7-17.1-5.3-12-5.3-12-1-1-2-1.1l.1-.1-8.6-9.8c.1-.4.2-1.1-.1-2.5-.5-2.4-3.8-8.2-3.8-8.2s-2-8.8-2.4-11.3c0-.1 0-.4-.1-.6-.6-3.3-2.4-15-3.8-19.9s-1.8-4-5.6-13.3-6.5-20.8-6.5-20.8c-2.1-11.8-.4-18.4-.1-21.8s4.9-20.8 4.9-20.8 3.8-7.3 5.4-10 5.8-12.4 5.8-12.4 7-19.9 8.4-23.3 3.1-13.4 4.4-18.3 5.1-9.5 6.1-11.8 12.5-19.7 12.5-19.7 7.1-8.3 6.4-11.7c-.7-3.3 4.5-24.3 4.5-24.3s.5 8.3 3.8 12.3 6 5.2 7.3 5.4c1.3.3 4.3-7.7 3.7-12.1-.7-4.3-1-5-2-7.5s-1.7-4.5-1.7-4.5l2-3.3s3.3 1 4.3.7 3.7 10.7 7.3 13.3c3.7 2.7 15.5 3 16.4 2s-4-12.8-7.3-15.5z"/><path d="M274.8 522.8c.4-2.5.7-4.2.7-4.2.1-.8-.1-1.5-.7-1.9-.8-.6-1.9-.2-1.9-.2-.7.3-1 1-1.6 2.7-.4 1.1-.8 2.5-1.2 4.2-1.6 4.3-6.2 16-8.6 20.4-2.9 5.1-7.4 14.7-17.5 22.8-5 4-13 9.8-17.2 10.8s-7.1 1.5-8.1 1.6-2.2.4-3.1.9-1.4 2.4 0 2.8 4.6.6 8.1 0 9.6-3.9 11.5-5 6.4-2.8 6.4-2.8-9 14.2-11.2 17.9-8.9 14.1-10.2 16.4-1.2 4.5-1 5.9c.2 1.4 2 1.7 3 1.2s3.9-5.8 4.8-8.1 8.5-15 12.4-20.1 12.2-19.8 12.5-21 11.6-14.6 13.9-19.9c3.4-8 7.3-19.4 8.6-22.1 0 0 .1-.2.2-.5.1-.9.2-1.5.2-1.8z"/></g></g></svg>